<mxfile host="www.draw.io" modified="2019-12-08T11:52:20.411Z" agent="Mozilla/5.0 (Macintosh; Intel Mac OS X 10_13_6) AppleWebKit/537.36 (KHTML, like Gecko) Chrome/78.0.3904.108 Safari/537.36" etag="BkilYoClaaB0R0xmHiMe" version="12.3.8" type="github" pages="2">
  <diagram id="kX7a0oZIadruRrW86Him" name="Page-1">
    <mxGraphModel dx="2426" dy="405" grid="1" gridSize="10" guides="1" tooltips="1" connect="1" arrows="1" fold="1" page="1" pageScale="1" pageWidth="827" pageHeight="1169" math="0" shadow="0">
      <root>
        <mxCell id="0"/>
        <mxCell id="1" parent="0"/>
        <mxCell id="DJ4fG2_ZOjrxs_Zz-jVt-2" value="" style="ellipse;shape=cloud;whiteSpace=wrap;html=1;" parent="1" vertex="1">
          <mxGeometry x="-860" y="90" width="670" height="380" as="geometry"/>
        </mxCell>
        <mxCell id="DJ4fG2_ZOjrxs_Zz-jVt-26" value="" style="shape=flexArrow;endArrow=classic;startArrow=classic;html=1;fillColor=#ffffff;startWidth=4;startSize=4.85;endWidth=4;endSize=4.85;width=4;spacing=6;fontSize=9;" parent="1" edge="1">
          <mxGeometry width="50" height="50" relative="1" as="geometry">
            <mxPoint x="130" y="630" as="sourcePoint"/>
            <mxPoint x="180" y="630" as="targetPoint"/>
          </mxGeometry>
        </mxCell>
        <mxCell id="DJ4fG2_ZOjrxs_Zz-jVt-29" value="VPC" style="text;html=1;strokeColor=none;fillColor=none;align=center;verticalAlign=middle;whiteSpace=wrap;rounded=0;fontSize=9;" parent="1" vertex="1">
          <mxGeometry x="-550" y="410" width="40" height="20" as="geometry"/>
        </mxCell>
        <mxCell id="DJ4fG2_ZOjrxs_Zz-jVt-30" value="" style="group" parent="1" vertex="1" connectable="0">
          <mxGeometry x="-460" y="210" width="150" height="112" as="geometry"/>
        </mxCell>
        <mxCell id="DJ4fG2_ZOjrxs_Zz-jVt-31" value="" style="rounded=1;whiteSpace=wrap;html=1;" parent="DJ4fG2_ZOjrxs_Zz-jVt-30" vertex="1">
          <mxGeometry width="143.7125748502994" height="112" as="geometry"/>
        </mxCell>
        <mxCell id="DJ4fG2_ZOjrxs_Zz-jVt-32" value="" style="group" parent="DJ4fG2_ZOjrxs_Zz-jVt-30" vertex="1" connectable="0">
          <mxGeometry x="19.76047904191617" y="44" width="130.23952095808383" height="68" as="geometry"/>
        </mxCell>
        <mxCell id="DJ4fG2_ZOjrxs_Zz-jVt-33" value="" style="shape=cylinder;whiteSpace=wrap;html=1;boundedLbl=1;backgroundOutline=1;fillColor=#f8cecc;strokeColor=#b85450;" parent="DJ4fG2_ZOjrxs_Zz-jVt-32" vertex="1">
          <mxGeometry width="44.91017964071857" height="56" as="geometry"/>
        </mxCell>
        <mxCell id="DJ4fG2_ZOjrxs_Zz-jVt-34" value="" style="shape=cylinder;whiteSpace=wrap;html=1;boundedLbl=1;backgroundOutline=1;fillColor=#f8cecc;strokeColor=#b85450;" parent="DJ4fG2_ZOjrxs_Zz-jVt-32" vertex="1">
          <mxGeometry x="58.38323353293413" width="44.91017964071857" height="56" as="geometry"/>
        </mxCell>
        <mxCell id="DJ4fG2_ZOjrxs_Zz-jVt-35" value="" style="group" parent="DJ4fG2_ZOjrxs_Zz-jVt-32" vertex="1" connectable="0">
          <mxGeometry x="-20.65868263473054" y="-12" width="143.7125748502994" height="80" as="geometry"/>
        </mxCell>
        <mxCell id="DJ4fG2_ZOjrxs_Zz-jVt-36" value="" style="rounded=1;whiteSpace=wrap;html=1;" parent="DJ4fG2_ZOjrxs_Zz-jVt-35" vertex="1">
          <mxGeometry y="-32" width="143.7125748502994" height="112" as="geometry"/>
        </mxCell>
        <mxCell id="DJ4fG2_ZOjrxs_Zz-jVt-37" value="" style="group" parent="DJ4fG2_ZOjrxs_Zz-jVt-35" vertex="1" connectable="0">
          <mxGeometry x="19.76047904191617" y="12" width="103.2934131736527" height="56" as="geometry"/>
        </mxCell>
        <mxCell id="DJ4fG2_ZOjrxs_Zz-jVt-38" value="M" style="shape=cylinder;whiteSpace=wrap;html=1;boundedLbl=1;backgroundOutline=1;fillColor=#f8cecc;strokeColor=#b85450;" parent="DJ4fG2_ZOjrxs_Zz-jVt-37" vertex="1">
          <mxGeometry x="-7" width="44.91017964071857" height="56" as="geometry"/>
        </mxCell>
        <mxCell id="DJ4fG2_ZOjrxs_Zz-jVt-39" value="S" style="shape=cylinder;whiteSpace=wrap;html=1;boundedLbl=1;backgroundOutline=1;fillColor=#f8cecc;strokeColor=#b85450;" parent="DJ4fG2_ZOjrxs_Zz-jVt-37" vertex="1">
          <mxGeometry x="67.38323353293413" width="44.91017964071857" height="56" as="geometry"/>
        </mxCell>
        <mxCell id="DJ4fG2_ZOjrxs_Zz-jVt-40" value="RDS" style="text;html=1;strokeColor=none;fillColor=none;align=center;verticalAlign=middle;whiteSpace=wrap;rounded=0;" parent="DJ4fG2_ZOjrxs_Zz-jVt-35" vertex="1">
          <mxGeometry x="35.92814371257485" y="-32" width="71.8562874251497" height="32" as="geometry"/>
        </mxCell>
        <mxCell id="DJ4fG2_ZOjrxs_Zz-jVt-41" value="" style="shape=flexArrow;endArrow=classic;startArrow=classic;html=1;fillColor=#ffffff;startWidth=4;startSize=4.85;endWidth=4;endSize=4.85;width=4;spacing=6;fontSize=9;" parent="DJ4fG2_ZOjrxs_Zz-jVt-35" edge="1">
          <mxGeometry width="50" height="50" relative="1" as="geometry">
            <mxPoint x="46.89820359281437" y="50" as="sourcePoint"/>
            <mxPoint x="96.89820359281437" y="50" as="targetPoint"/>
          </mxGeometry>
        </mxCell>
        <mxCell id="DJ4fG2_ZOjrxs_Zz-jVt-42" value="RDS" style="text;html=1;strokeColor=none;fillColor=none;align=center;verticalAlign=middle;whiteSpace=wrap;rounded=0;" parent="DJ4fG2_ZOjrxs_Zz-jVt-30" vertex="1">
          <mxGeometry x="35.928143712574865" width="71.8562874251497" height="32" as="geometry"/>
        </mxCell>
        <mxCell id="DJ4fG2_ZOjrxs_Zz-jVt-60" value="" style="group" parent="1" vertex="1" connectable="0">
          <mxGeometry x="-250" y="650" width="190" height="160" as="geometry"/>
        </mxCell>
        <mxCell id="DJ4fG2_ZOjrxs_Zz-jVt-61" value="" style="rounded=1;whiteSpace=wrap;html=1;fontSize=9;" parent="DJ4fG2_ZOjrxs_Zz-jVt-60" vertex="1">
          <mxGeometry width="190" height="160" as="geometry"/>
        </mxCell>
        <mxCell id="DJ4fG2_ZOjrxs_Zz-jVt-62" value="M" style="shape=cylinder;whiteSpace=wrap;html=1;boundedLbl=1;backgroundOutline=1;fillColor=#f8cecc;strokeColor=#b85450;" parent="DJ4fG2_ZOjrxs_Zz-jVt-60" vertex="1">
          <mxGeometry x="55" y="40" width="75" height="80" as="geometry"/>
        </mxCell>
        <mxCell id="DJ4fG2_ZOjrxs_Zz-jVt-63" value="&lt;font style=&quot;font-size: 7px&quot;&gt;vpc ip&lt;/font&gt;" style="rounded=0;whiteSpace=wrap;html=1;fontSize=9;" parent="DJ4fG2_ZOjrxs_Zz-jVt-60" vertex="1">
          <mxGeometry x="40" y="130" width="55" height="30" as="geometry"/>
        </mxCell>
        <mxCell id="DJ4fG2_ZOjrxs_Zz-jVt-64" value="floating ip" style="rounded=0;whiteSpace=wrap;html=1;fontSize=9;" parent="DJ4fG2_ZOjrxs_Zz-jVt-60" vertex="1">
          <mxGeometry x="95" y="130" width="55" height="30" as="geometry"/>
        </mxCell>
        <mxCell id="DJ4fG2_ZOjrxs_Zz-jVt-65" value="container" style="text;html=1;strokeColor=none;fillColor=none;align=center;verticalAlign=middle;whiteSpace=wrap;rounded=0;fontSize=9;" parent="DJ4fG2_ZOjrxs_Zz-jVt-60" vertex="1">
          <mxGeometry x="70" y="10" width="40" height="20" as="geometry"/>
        </mxCell>
        <mxCell id="WgZfssHmkSOT2Ka2Iq5H-1" value="" style="group" parent="1" vertex="1" connectable="0">
          <mxGeometry x="-760" y="830" width="470" height="230" as="geometry"/>
        </mxCell>
        <mxCell id="DJ4fG2_ZOjrxs_Zz-jVt-12" value="" style="rounded=1;whiteSpace=wrap;html=1;" parent="WgZfssHmkSOT2Ka2Iq5H-1" vertex="1">
          <mxGeometry width="470" height="230" as="geometry"/>
        </mxCell>
        <mxCell id="DJ4fG2_ZOjrxs_Zz-jVt-16" value="RDS" style="text;html=1;strokeColor=none;fillColor=none;align=center;verticalAlign=middle;whiteSpace=wrap;rounded=0;" parent="WgZfssHmkSOT2Ka2Iq5H-1" vertex="1">
          <mxGeometry x="179.5" width="101" height="40" as="geometry"/>
        </mxCell>
        <mxCell id="DJ4fG2_ZOjrxs_Zz-jVt-66" value="" style="group" parent="WgZfssHmkSOT2Ka2Iq5H-1" vertex="1" connectable="0">
          <mxGeometry x="40" y="50" width="400" height="160" as="geometry"/>
        </mxCell>
        <mxCell id="DJ4fG2_ZOjrxs_Zz-jVt-52" value="" style="group" parent="DJ4fG2_ZOjrxs_Zz-jVt-66" vertex="1" connectable="0">
          <mxGeometry width="190" height="160" as="geometry"/>
        </mxCell>
        <mxCell id="DJ4fG2_ZOjrxs_Zz-jVt-44" value="" style="rounded=1;whiteSpace=wrap;html=1;fontSize=9;" parent="DJ4fG2_ZOjrxs_Zz-jVt-52" vertex="1">
          <mxGeometry width="190" height="160" as="geometry"/>
        </mxCell>
        <mxCell id="DJ4fG2_ZOjrxs_Zz-jVt-14" value="M" style="shape=cylinder;whiteSpace=wrap;html=1;boundedLbl=1;backgroundOutline=1;fillColor=#f8cecc;strokeColor=#b85450;" parent="DJ4fG2_ZOjrxs_Zz-jVt-52" vertex="1">
          <mxGeometry x="55" y="40" width="75" height="80" as="geometry"/>
        </mxCell>
        <mxCell id="DJ4fG2_ZOjrxs_Zz-jVt-49" value="&lt;font style=&quot;font-size: 7px&quot;&gt;vpc ip&lt;/font&gt;" style="rounded=0;whiteSpace=wrap;html=1;fontSize=9;" parent="DJ4fG2_ZOjrxs_Zz-jVt-52" vertex="1">
          <mxGeometry x="40" y="130" width="55" height="30" as="geometry"/>
        </mxCell>
        <mxCell id="DJ4fG2_ZOjrxs_Zz-jVt-50" value="floating ip" style="rounded=0;whiteSpace=wrap;html=1;fontSize=9;" parent="DJ4fG2_ZOjrxs_Zz-jVt-52" vertex="1">
          <mxGeometry x="95" y="130" width="55" height="30" as="geometry"/>
        </mxCell>
        <mxCell id="DJ4fG2_ZOjrxs_Zz-jVt-51" value="container" style="text;html=1;strokeColor=none;fillColor=none;align=center;verticalAlign=middle;whiteSpace=wrap;rounded=0;fontSize=9;" parent="DJ4fG2_ZOjrxs_Zz-jVt-52" vertex="1">
          <mxGeometry x="70" y="10" width="40" height="20" as="geometry"/>
        </mxCell>
        <mxCell id="DJ4fG2_ZOjrxs_Zz-jVt-53" value="" style="group" parent="DJ4fG2_ZOjrxs_Zz-jVt-66" vertex="1" connectable="0">
          <mxGeometry x="210" width="190" height="160" as="geometry"/>
        </mxCell>
        <mxCell id="DJ4fG2_ZOjrxs_Zz-jVt-54" value="" style="rounded=1;whiteSpace=wrap;html=1;fontSize=9;" parent="DJ4fG2_ZOjrxs_Zz-jVt-53" vertex="1">
          <mxGeometry width="190" height="160" as="geometry"/>
        </mxCell>
        <mxCell id="DJ4fG2_ZOjrxs_Zz-jVt-55" value="S" style="shape=cylinder;whiteSpace=wrap;html=1;boundedLbl=1;backgroundOutline=1;fillColor=#f8cecc;strokeColor=#b85450;" parent="DJ4fG2_ZOjrxs_Zz-jVt-53" vertex="1">
          <mxGeometry x="55" y="40" width="75" height="80" as="geometry"/>
        </mxCell>
        <mxCell id="DJ4fG2_ZOjrxs_Zz-jVt-56" value="&lt;font style=&quot;font-size: 7px&quot;&gt;vpc ip&lt;/font&gt;" style="rounded=0;whiteSpace=wrap;html=1;fontSize=9;" parent="DJ4fG2_ZOjrxs_Zz-jVt-53" vertex="1">
          <mxGeometry x="40" y="130" width="55" height="30" as="geometry"/>
        </mxCell>
        <mxCell id="DJ4fG2_ZOjrxs_Zz-jVt-57" value="floating ip" style="rounded=0;whiteSpace=wrap;html=1;fontSize=9;" parent="DJ4fG2_ZOjrxs_Zz-jVt-53" vertex="1">
          <mxGeometry x="95" y="130" width="55" height="30" as="geometry"/>
        </mxCell>
        <mxCell id="DJ4fG2_ZOjrxs_Zz-jVt-58" value="container" style="text;html=1;strokeColor=none;fillColor=none;align=center;verticalAlign=middle;whiteSpace=wrap;rounded=0;fontSize=9;" parent="DJ4fG2_ZOjrxs_Zz-jVt-53" vertex="1">
          <mxGeometry x="70" y="10" width="40" height="20" as="geometry"/>
        </mxCell>
        <mxCell id="DJ4fG2_ZOjrxs_Zz-jVt-25" value="" style="shape=flexArrow;endArrow=classic;startArrow=classic;html=1;fillColor=#ffffff;startWidth=4;startSize=4.85;endWidth=4;endSize=4.85;width=4;spacing=6;fontSize=9;" parent="DJ4fG2_ZOjrxs_Zz-jVt-66" edge="1">
          <mxGeometry width="50" height="50" relative="1" as="geometry">
            <mxPoint x="147.4999999999999" y="80.21428571428567" as="sourcePoint"/>
            <mxPoint x="247.4999999999999" y="80.21428571428567" as="targetPoint"/>
          </mxGeometry>
        </mxCell>
        <mxCell id="DJ4fG2_ZOjrxs_Zz-jVt-59" value="replication" style="text;html=1;strokeColor=none;fillColor=none;align=center;verticalAlign=middle;whiteSpace=wrap;rounded=0;fontSize=9;" parent="DJ4fG2_ZOjrxs_Zz-jVt-66" vertex="1">
          <mxGeometry x="180" y="50" width="40" height="20" as="geometry"/>
        </mxCell>
      </root>
    </mxGraphModel>
  </diagram>
  <diagram id="x0Sd-s6SjLfR0a9qSXn6" name="Page-2">
    <mxGraphModel dx="3253" dy="405" grid="1" gridSize="10" guides="1" tooltips="1" connect="1" arrows="1" fold="1" page="1" pageScale="1" pageWidth="827" pageHeight="1169" math="0" shadow="0">
      <root>
        <mxCell id="attTnAMffyvIRlDMNTJ2-0"/>
        <mxCell id="attTnAMffyvIRlDMNTJ2-1" parent="attTnAMffyvIRlDMNTJ2-0"/>
        <mxCell id="h2QRb7YloT4JAXJ-JDLX-215" value="" style="rounded=0;whiteSpace=wrap;html=1;fontSize=9;" parent="attTnAMffyvIRlDMNTJ2-1" vertex="1">
          <mxGeometry x="-2430" y="380" width="2220" height="1780" as="geometry"/>
        </mxCell>
        <mxCell id="daT-R8JC0VPsQGqbHnTv-24" value="" style="rounded=1;whiteSpace=wrap;html=1;fontSize=9;" parent="attTnAMffyvIRlDMNTJ2-1" vertex="1">
          <mxGeometry x="-2340" y="540" width="1750" height="930" as="geometry"/>
        </mxCell>
        <mxCell id="daT-R8JC0VPsQGqbHnTv-20" value="" style="group" parent="attTnAMffyvIRlDMNTJ2-1" vertex="1" connectable="0">
          <mxGeometry x="-2300" y="600" width="1890" height="1680" as="geometry"/>
        </mxCell>
        <mxCell id="daT-R8JC0VPsQGqbHnTv-18" value="" style="ellipse;shape=cloud;whiteSpace=wrap;html=1;fontSize=9;" parent="daT-R8JC0VPsQGqbHnTv-20" vertex="1">
          <mxGeometry x="-76" y="-57" width="1846" height="617" as="geometry"/>
        </mxCell>
        <mxCell id="daT-R8JC0VPsQGqbHnTv-19" value="VPC" style="text;html=1;strokeColor=none;fillColor=none;align=center;verticalAlign=middle;whiteSpace=wrap;rounded=0;fontSize=9;" parent="daT-R8JC0VPsQGqbHnTv-20" vertex="1">
          <mxGeometry x="845.0000000000001" y="35.18604651162791" width="50.82706766917294" height="26.046511627906977" as="geometry"/>
        </mxCell>
        <mxCell id="daT-R8JC0VPsQGqbHnTv-65" value="" style="group" parent="daT-R8JC0VPsQGqbHnTv-20" vertex="1" connectable="0">
          <mxGeometry x="1090" y="130" width="400" height="215" as="geometry"/>
        </mxCell>
        <mxCell id="daT-R8JC0VPsQGqbHnTv-66" value="" style="rounded=1;whiteSpace=wrap;html=1;" parent="daT-R8JC0VPsQGqbHnTv-65" vertex="1">
          <mxGeometry width="400" height="215" as="geometry"/>
        </mxCell>
        <mxCell id="daT-R8JC0VPsQGqbHnTv-67" value="RDS" style="text;html=1;strokeColor=none;fillColor=none;align=center;verticalAlign=middle;whiteSpace=wrap;rounded=0;" parent="daT-R8JC0VPsQGqbHnTv-65" vertex="1">
          <mxGeometry x="152.7659574468085" width="85.95744680851062" height="37.39130434782609" as="geometry"/>
        </mxCell>
        <mxCell id="daT-R8JC0VPsQGqbHnTv-68" value="" style="group" parent="daT-R8JC0VPsQGqbHnTv-65" vertex="1" connectable="0">
          <mxGeometry x="34.04255319148936" y="46.739130434782616" width="340.4255319148936" height="149.56521739130437" as="geometry"/>
        </mxCell>
        <mxCell id="daT-R8JC0VPsQGqbHnTv-69" value="" style="group" parent="daT-R8JC0VPsQGqbHnTv-68" vertex="1" connectable="0">
          <mxGeometry width="161.70212765957444" height="149.56521739130437" as="geometry"/>
        </mxCell>
        <mxCell id="daT-R8JC0VPsQGqbHnTv-70" value="" style="rounded=1;whiteSpace=wrap;html=1;fontSize=9;" parent="daT-R8JC0VPsQGqbHnTv-69" vertex="1">
          <mxGeometry width="161.70212765957444" height="149.56521739130437" as="geometry"/>
        </mxCell>
        <mxCell id="daT-R8JC0VPsQGqbHnTv-71" value="M" style="shape=cylinder;whiteSpace=wrap;html=1;boundedLbl=1;backgroundOutline=1;fillColor=#f8cecc;strokeColor=#b85450;" parent="daT-R8JC0VPsQGqbHnTv-69" vertex="1">
          <mxGeometry x="46.808510638297875" y="37.39130434782609" width="63.829787234042556" height="74.78260869565219" as="geometry"/>
        </mxCell>
        <mxCell id="daT-R8JC0VPsQGqbHnTv-72" value="&lt;font style=&quot;font-size: 7px&quot;&gt;vpc ip&lt;/font&gt;" style="rounded=0;whiteSpace=wrap;html=1;fontSize=9;" parent="daT-R8JC0VPsQGqbHnTv-69" vertex="1">
          <mxGeometry x="34.04255319148936" y="121.5217391304348" width="46.808510638297875" height="28.043478260869566" as="geometry"/>
        </mxCell>
        <mxCell id="daT-R8JC0VPsQGqbHnTv-73" value="floating ip" style="rounded=0;whiteSpace=wrap;html=1;fontSize=9;" parent="daT-R8JC0VPsQGqbHnTv-69" vertex="1">
          <mxGeometry x="80.85106382978722" y="121.5217391304348" width="46.808510638297875" height="28.043478260869566" as="geometry"/>
        </mxCell>
        <mxCell id="daT-R8JC0VPsQGqbHnTv-74" value="container" style="text;html=1;strokeColor=none;fillColor=none;align=center;verticalAlign=middle;whiteSpace=wrap;rounded=0;fontSize=9;" parent="daT-R8JC0VPsQGqbHnTv-69" vertex="1">
          <mxGeometry x="59.57446808510638" y="9.347826086956523" width="34.04255319148936" height="18.695652173913047" as="geometry"/>
        </mxCell>
        <mxCell id="daT-R8JC0VPsQGqbHnTv-75" value="" style="group" parent="daT-R8JC0VPsQGqbHnTv-68" vertex="1" connectable="0">
          <mxGeometry x="178.72340425531914" width="161.70212765957444" height="149.56521739130437" as="geometry"/>
        </mxCell>
        <mxCell id="daT-R8JC0VPsQGqbHnTv-76" value="" style="rounded=1;whiteSpace=wrap;html=1;fontSize=9;" parent="daT-R8JC0VPsQGqbHnTv-75" vertex="1">
          <mxGeometry width="161.70212765957444" height="149.56521739130437" as="geometry"/>
        </mxCell>
        <mxCell id="daT-R8JC0VPsQGqbHnTv-77" value="S" style="shape=cylinder;whiteSpace=wrap;html=1;boundedLbl=1;backgroundOutline=1;fillColor=#f8cecc;strokeColor=#b85450;" parent="daT-R8JC0VPsQGqbHnTv-75" vertex="1">
          <mxGeometry x="46.808510638297875" y="37.39130434782609" width="63.829787234042556" height="74.78260869565219" as="geometry"/>
        </mxCell>
        <mxCell id="daT-R8JC0VPsQGqbHnTv-78" value="&lt;font style=&quot;font-size: 7px&quot;&gt;vpc ip&lt;/font&gt;" style="rounded=0;whiteSpace=wrap;html=1;fontSize=9;" parent="daT-R8JC0VPsQGqbHnTv-75" vertex="1">
          <mxGeometry x="34.04255319148936" y="121.5217391304348" width="46.808510638297875" height="28.043478260869566" as="geometry"/>
        </mxCell>
        <mxCell id="daT-R8JC0VPsQGqbHnTv-79" value="floating ip" style="rounded=0;whiteSpace=wrap;html=1;fontSize=9;" parent="daT-R8JC0VPsQGqbHnTv-75" vertex="1">
          <mxGeometry x="80.85106382978722" y="121.5217391304348" width="46.808510638297875" height="28.043478260869566" as="geometry"/>
        </mxCell>
        <mxCell id="daT-R8JC0VPsQGqbHnTv-80" value="container" style="text;html=1;strokeColor=none;fillColor=none;align=center;verticalAlign=middle;whiteSpace=wrap;rounded=0;fontSize=9;" parent="daT-R8JC0VPsQGqbHnTv-75" vertex="1">
          <mxGeometry x="59.57446808510638" y="9.347826086956523" width="34.04255319148936" height="18.695652173913047" as="geometry"/>
        </mxCell>
        <mxCell id="daT-R8JC0VPsQGqbHnTv-81" value="" style="shape=flexArrow;endArrow=classic;startArrow=classic;html=1;fillColor=#ffffff;startWidth=4;startSize=4.85;endWidth=4;endSize=4.85;width=4;spacing=6;fontSize=9;" parent="daT-R8JC0VPsQGqbHnTv-68" edge="1">
          <mxGeometry width="50" height="50" relative="1" as="geometry">
            <mxPoint x="125.5319148936169" y="74.98291925465834" as="sourcePoint"/>
            <mxPoint x="210.6382978723403" y="74.98291925465834" as="targetPoint"/>
          </mxGeometry>
        </mxCell>
        <mxCell id="daT-R8JC0VPsQGqbHnTv-82" value="replication" style="text;html=1;strokeColor=none;fillColor=none;align=center;verticalAlign=middle;whiteSpace=wrap;rounded=0;fontSize=9;" parent="daT-R8JC0VPsQGqbHnTv-68" vertex="1">
          <mxGeometry x="153.1914893617021" y="46.739130434782616" width="34.04255319148936" height="18.695652173913047" as="geometry"/>
        </mxCell>
        <mxCell id="daT-R8JC0VPsQGqbHnTv-0" value="" style="group" parent="daT-R8JC0VPsQGqbHnTv-20" vertex="1" connectable="0">
          <mxGeometry x="220" y="125" width="400" height="215" as="geometry"/>
        </mxCell>
        <mxCell id="daT-R8JC0VPsQGqbHnTv-1" value="" style="rounded=1;whiteSpace=wrap;html=1;" parent="daT-R8JC0VPsQGqbHnTv-0" vertex="1">
          <mxGeometry width="399.99999999999994" height="215" as="geometry"/>
        </mxCell>
        <mxCell id="daT-R8JC0VPsQGqbHnTv-2" value="RDS" style="text;html=1;strokeColor=none;fillColor=none;align=center;verticalAlign=middle;whiteSpace=wrap;rounded=0;" parent="daT-R8JC0VPsQGqbHnTv-0" vertex="1">
          <mxGeometry x="152.7659574468085" width="85.95744680851062" height="37.39130434782609" as="geometry"/>
        </mxCell>
        <mxCell id="daT-R8JC0VPsQGqbHnTv-3" value="" style="group" parent="daT-R8JC0VPsQGqbHnTv-0" vertex="1" connectable="0">
          <mxGeometry x="34.04255319148936" y="46.739130434782616" width="340.4255319148936" height="149.56521739130437" as="geometry"/>
        </mxCell>
        <mxCell id="daT-R8JC0VPsQGqbHnTv-4" value="" style="group" parent="daT-R8JC0VPsQGqbHnTv-3" vertex="1" connectable="0">
          <mxGeometry width="161.70212765957444" height="149.56521739130437" as="geometry"/>
        </mxCell>
        <mxCell id="daT-R8JC0VPsQGqbHnTv-5" value="" style="rounded=1;whiteSpace=wrap;html=1;fontSize=9;" parent="daT-R8JC0VPsQGqbHnTv-4" vertex="1">
          <mxGeometry width="161.70212765957444" height="149.56521739130437" as="geometry"/>
        </mxCell>
        <mxCell id="daT-R8JC0VPsQGqbHnTv-6" value="S" style="shape=cylinder;whiteSpace=wrap;html=1;boundedLbl=1;backgroundOutline=1;fillColor=#f8cecc;strokeColor=#b85450;" parent="daT-R8JC0VPsQGqbHnTv-4" vertex="1">
          <mxGeometry x="46.808510638297875" y="37.39130434782609" width="63.829787234042556" height="74.78260869565219" as="geometry"/>
        </mxCell>
        <mxCell id="daT-R8JC0VPsQGqbHnTv-7" value="&lt;font style=&quot;font-size: 7px&quot;&gt;vpc ip&lt;/font&gt;" style="rounded=0;whiteSpace=wrap;html=1;fontSize=9;" parent="daT-R8JC0VPsQGqbHnTv-4" vertex="1">
          <mxGeometry x="34.04255319148936" y="121.5217391304348" width="46.808510638297875" height="28.043478260869566" as="geometry"/>
        </mxCell>
        <mxCell id="daT-R8JC0VPsQGqbHnTv-8" value="floating ip" style="rounded=0;whiteSpace=wrap;html=1;fontSize=9;" parent="daT-R8JC0VPsQGqbHnTv-4" vertex="1">
          <mxGeometry x="80.85106382978722" y="121.5217391304348" width="46.808510638297875" height="28.043478260869566" as="geometry"/>
        </mxCell>
        <mxCell id="daT-R8JC0VPsQGqbHnTv-9" value="container" style="text;html=1;strokeColor=none;fillColor=none;align=center;verticalAlign=middle;whiteSpace=wrap;rounded=0;fontSize=9;" parent="daT-R8JC0VPsQGqbHnTv-4" vertex="1">
          <mxGeometry x="59.57446808510638" y="9.347826086956523" width="34.04255319148936" height="18.695652173913047" as="geometry"/>
        </mxCell>
        <mxCell id="daT-R8JC0VPsQGqbHnTv-10" value="" style="group" parent="daT-R8JC0VPsQGqbHnTv-3" vertex="1" connectable="0">
          <mxGeometry x="178.72340425531914" width="161.70212765957444" height="149.56521739130437" as="geometry"/>
        </mxCell>
        <mxCell id="daT-R8JC0VPsQGqbHnTv-11" value="" style="rounded=1;whiteSpace=wrap;html=1;fontSize=9;" parent="daT-R8JC0VPsQGqbHnTv-10" vertex="1">
          <mxGeometry width="161.70212765957444" height="149.56521739130437" as="geometry"/>
        </mxCell>
        <mxCell id="daT-R8JC0VPsQGqbHnTv-12" value="M" style="shape=cylinder;whiteSpace=wrap;html=1;boundedLbl=1;backgroundOutline=1;fillColor=#f8cecc;strokeColor=#b85450;" parent="daT-R8JC0VPsQGqbHnTv-10" vertex="1">
          <mxGeometry x="46.808510638297875" y="37.39130434782609" width="63.829787234042556" height="74.78260869565219" as="geometry"/>
        </mxCell>
        <mxCell id="daT-R8JC0VPsQGqbHnTv-13" value="&lt;font style=&quot;font-size: 7px&quot;&gt;flaoting Ip&lt;/font&gt;" style="rounded=0;whiteSpace=wrap;html=1;fontSize=9;" parent="daT-R8JC0VPsQGqbHnTv-10" vertex="1">
          <mxGeometry x="34.04255319148936" y="121.5217391304348" width="46.808510638297875" height="28.043478260869566" as="geometry"/>
        </mxCell>
        <mxCell id="daT-R8JC0VPsQGqbHnTv-14" value="vpc ip" style="rounded=0;whiteSpace=wrap;html=1;fontSize=9;" parent="daT-R8JC0VPsQGqbHnTv-10" vertex="1">
          <mxGeometry x="80.85106382978722" y="121.5217391304348" width="46.808510638297875" height="28.043478260869566" as="geometry"/>
        </mxCell>
        <mxCell id="daT-R8JC0VPsQGqbHnTv-15" value="container" style="text;html=1;strokeColor=none;fillColor=none;align=center;verticalAlign=middle;whiteSpace=wrap;rounded=0;fontSize=9;" parent="daT-R8JC0VPsQGqbHnTv-10" vertex="1">
          <mxGeometry x="59.57446808510638" y="9.347826086956523" width="34.04255319148936" height="18.695652173913047" as="geometry"/>
        </mxCell>
        <mxCell id="daT-R8JC0VPsQGqbHnTv-16" value="" style="shape=flexArrow;endArrow=classic;startArrow=classic;html=1;fillColor=#ffffff;startWidth=4;startSize=4.85;endWidth=4;endSize=4.85;width=4;spacing=6;fontSize=9;" parent="daT-R8JC0VPsQGqbHnTv-3" edge="1">
          <mxGeometry width="50" height="50" relative="1" as="geometry">
            <mxPoint x="125.5319148936169" y="74.98291925465834" as="sourcePoint"/>
            <mxPoint x="210.6382978723403" y="74.98291925465834" as="targetPoint"/>
          </mxGeometry>
        </mxCell>
        <mxCell id="daT-R8JC0VPsQGqbHnTv-17" value="replication" style="text;html=1;strokeColor=none;fillColor=none;align=center;verticalAlign=middle;whiteSpace=wrap;rounded=0;fontSize=9;" parent="daT-R8JC0VPsQGqbHnTv-3" vertex="1">
          <mxGeometry x="153.1914893617021" y="46.739130434782616" width="34.04255319148936" height="18.695652173913047" as="geometry"/>
        </mxCell>
        <mxCell id="daT-R8JC0VPsQGqbHnTv-150" value="Router" style="shape=process;whiteSpace=wrap;html=1;backgroundOutline=1;fontSize=9;" parent="daT-R8JC0VPsQGqbHnTv-20" vertex="1">
          <mxGeometry x="765" y="930" width="120" height="60" as="geometry"/>
        </mxCell>
        <mxCell id="daT-R8JC0VPsQGqbHnTv-152" value="" style="ellipse;shape=cloud;whiteSpace=wrap;html=1;fontSize=9;" parent="daT-R8JC0VPsQGqbHnTv-20" vertex="1">
          <mxGeometry x="825" y="990" width="895" height="470" as="geometry"/>
        </mxCell>
        <mxCell id="daT-R8JC0VPsQGqbHnTv-153" value="" style="group" parent="daT-R8JC0VPsQGqbHnTv-20" vertex="1" connectable="0">
          <mxGeometry x="-20" y="1030" width="790" height="450" as="geometry"/>
        </mxCell>
        <mxCell id="daT-R8JC0VPsQGqbHnTv-109" value="" style="rounded=1;whiteSpace=wrap;html=1;fontSize=9;" parent="daT-R8JC0VPsQGqbHnTv-153" vertex="1">
          <mxGeometry width="790" height="450" as="geometry"/>
        </mxCell>
        <mxCell id="daT-R8JC0VPsQGqbHnTv-128" value="" style="group" parent="daT-R8JC0VPsQGqbHnTv-153" vertex="1" connectable="0">
          <mxGeometry x="50" y="20" width="660" height="430" as="geometry"/>
        </mxCell>
        <mxCell id="daT-R8JC0VPsQGqbHnTv-129" value="" style="ellipse;shape=cloud;whiteSpace=wrap;html=1;fontSize=9;" parent="daT-R8JC0VPsQGqbHnTv-128" vertex="1">
          <mxGeometry width="660" height="430" as="geometry"/>
        </mxCell>
        <mxCell id="daT-R8JC0VPsQGqbHnTv-130" value="" style="group" parent="daT-R8JC0VPsQGqbHnTv-128" vertex="1" connectable="0">
          <mxGeometry x="140" y="130" width="390" height="190" as="geometry"/>
        </mxCell>
        <mxCell id="daT-R8JC0VPsQGqbHnTv-131" value="" style="rounded=1;whiteSpace=wrap;html=1;" parent="daT-R8JC0VPsQGqbHnTv-130" vertex="1">
          <mxGeometry width="389.99999999999994" height="190" as="geometry"/>
        </mxCell>
        <mxCell id="daT-R8JC0VPsQGqbHnTv-132" value="RDS" style="text;html=1;strokeColor=none;fillColor=none;align=center;verticalAlign=middle;whiteSpace=wrap;rounded=0;" parent="daT-R8JC0VPsQGqbHnTv-130" vertex="1">
          <mxGeometry x="148.94680851063828" width="83.80851063829786" height="33.04347826086957" as="geometry"/>
        </mxCell>
        <mxCell id="daT-R8JC0VPsQGqbHnTv-133" value="" style="group" parent="daT-R8JC0VPsQGqbHnTv-130" vertex="1" connectable="0">
          <mxGeometry x="33.191489361702125" y="41.30434782608696" width="331.9148936170212" height="132.17391304347828" as="geometry"/>
        </mxCell>
        <mxCell id="daT-R8JC0VPsQGqbHnTv-134" value="" style="group" parent="daT-R8JC0VPsQGqbHnTv-133" vertex="1" connectable="0">
          <mxGeometry width="157.65957446808508" height="132.17391304347828" as="geometry"/>
        </mxCell>
        <mxCell id="daT-R8JC0VPsQGqbHnTv-135" value="" style="rounded=1;whiteSpace=wrap;html=1;fontSize=9;" parent="daT-R8JC0VPsQGqbHnTv-134" vertex="1">
          <mxGeometry width="157.65957446808508" height="132.17391304347828" as="geometry"/>
        </mxCell>
        <mxCell id="daT-R8JC0VPsQGqbHnTv-136" value="S" style="shape=cylinder;whiteSpace=wrap;html=1;boundedLbl=1;backgroundOutline=1;fillColor=#f8cecc;strokeColor=#b85450;" parent="daT-R8JC0VPsQGqbHnTv-134" vertex="1">
          <mxGeometry x="45.638297872340424" y="33.04347826086957" width="62.23404255319149" height="66.08695652173914" as="geometry"/>
        </mxCell>
        <mxCell id="daT-R8JC0VPsQGqbHnTv-137" value="&lt;font style=&quot;font-size: 7px&quot;&gt;vpc ip&lt;/font&gt;" style="rounded=0;whiteSpace=wrap;html=1;fontSize=9;" parent="daT-R8JC0VPsQGqbHnTv-134" vertex="1">
          <mxGeometry x="33.191489361702125" y="107.3913043478261" width="45.638297872340424" height="24.782608695652172" as="geometry"/>
        </mxCell>
        <mxCell id="daT-R8JC0VPsQGqbHnTv-138" value="floating ip" style="rounded=0;whiteSpace=wrap;html=1;fontSize=9;" parent="daT-R8JC0VPsQGqbHnTv-134" vertex="1">
          <mxGeometry x="78.82978723404254" y="107.3913043478261" width="45.638297872340424" height="24.782608695652172" as="geometry"/>
        </mxCell>
        <mxCell id="daT-R8JC0VPsQGqbHnTv-139" value="container" style="text;html=1;strokeColor=none;fillColor=none;align=center;verticalAlign=middle;whiteSpace=wrap;rounded=0;fontSize=9;" parent="daT-R8JC0VPsQGqbHnTv-134" vertex="1">
          <mxGeometry x="58.08510638297872" y="8.260869565217392" width="33.191489361702125" height="16.521739130434785" as="geometry"/>
        </mxCell>
        <mxCell id="daT-R8JC0VPsQGqbHnTv-140" value="" style="group" parent="daT-R8JC0VPsQGqbHnTv-133" vertex="1" connectable="0">
          <mxGeometry x="174.25531914893617" width="157.65957446808508" height="132.17391304347828" as="geometry"/>
        </mxCell>
        <mxCell id="daT-R8JC0VPsQGqbHnTv-141" value="" style="rounded=1;whiteSpace=wrap;html=1;fontSize=9;" parent="daT-R8JC0VPsQGqbHnTv-140" vertex="1">
          <mxGeometry width="157.65957446808508" height="132.17391304347828" as="geometry"/>
        </mxCell>
        <mxCell id="daT-R8JC0VPsQGqbHnTv-142" value="M" style="shape=cylinder;whiteSpace=wrap;html=1;boundedLbl=1;backgroundOutline=1;fillColor=#f8cecc;strokeColor=#b85450;" parent="daT-R8JC0VPsQGqbHnTv-140" vertex="1">
          <mxGeometry x="45.638297872340424" y="33.04347826086957" width="62.23404255319149" height="66.08695652173914" as="geometry"/>
        </mxCell>
        <mxCell id="daT-R8JC0VPsQGqbHnTv-143" value="&lt;font style=&quot;font-size: 7px&quot;&gt;vpc ip&lt;/font&gt;" style="rounded=0;whiteSpace=wrap;html=1;fontSize=9;" parent="daT-R8JC0VPsQGqbHnTv-140" vertex="1">
          <mxGeometry x="33.191489361702125" y="107.3913043478261" width="45.638297872340424" height="24.782608695652172" as="geometry"/>
        </mxCell>
        <mxCell id="daT-R8JC0VPsQGqbHnTv-144" value="floating ip" style="rounded=0;whiteSpace=wrap;html=1;fontSize=9;" parent="daT-R8JC0VPsQGqbHnTv-140" vertex="1">
          <mxGeometry x="78.82978723404254" y="107.3913043478261" width="45.638297872340424" height="24.782608695652172" as="geometry"/>
        </mxCell>
        <mxCell id="daT-R8JC0VPsQGqbHnTv-145" value="container" style="text;html=1;strokeColor=none;fillColor=none;align=center;verticalAlign=middle;whiteSpace=wrap;rounded=0;fontSize=9;" parent="daT-R8JC0VPsQGqbHnTv-140" vertex="1">
          <mxGeometry x="58.08510638297872" y="8.260869565217392" width="33.191489361702125" height="16.521739130434785" as="geometry"/>
        </mxCell>
        <mxCell id="daT-R8JC0VPsQGqbHnTv-146" value="" style="shape=flexArrow;endArrow=classic;startArrow=classic;html=1;fillColor=#ffffff;startWidth=4;startSize=4.85;endWidth=4;endSize=4.85;width=4;spacing=6;fontSize=9;" parent="daT-R8JC0VPsQGqbHnTv-133" edge="1">
          <mxGeometry width="50" height="50" relative="1" as="geometry">
            <mxPoint x="122.39361702127648" y="66.26397515527947" as="sourcePoint"/>
            <mxPoint x="205.3723404255318" y="66.26397515527947" as="targetPoint"/>
          </mxGeometry>
        </mxCell>
        <mxCell id="daT-R8JC0VPsQGqbHnTv-147" value="replication" style="text;html=1;strokeColor=none;fillColor=none;align=center;verticalAlign=middle;whiteSpace=wrap;rounded=0;fontSize=9;" parent="daT-R8JC0VPsQGqbHnTv-133" vertex="1">
          <mxGeometry x="149.36170212765956" y="41.30434782608696" width="33.191489361702125" height="16.521739130434785" as="geometry"/>
        </mxCell>
        <mxCell id="daT-R8JC0VPsQGqbHnTv-148" value="VPC" style="text;html=1;strokeColor=none;fillColor=none;align=center;verticalAlign=middle;whiteSpace=wrap;rounded=0;fontSize=9;" parent="daT-R8JC0VPsQGqbHnTv-128" vertex="1">
          <mxGeometry x="310" y="80" width="40" height="20" as="geometry"/>
        </mxCell>
        <mxCell id="daT-R8JC0VPsQGqbHnTv-149" value="region 2" style="text;html=1;strokeColor=none;fillColor=none;align=center;verticalAlign=middle;whiteSpace=wrap;rounded=0;fontSize=9;" parent="daT-R8JC0VPsQGqbHnTv-153" vertex="1">
          <mxGeometry x="360" y="10" width="50" height="20" as="geometry"/>
        </mxCell>
        <mxCell id="h2QRb7YloT4JAXJ-JDLX-209" value="Router" style="shape=process;whiteSpace=wrap;html=1;backgroundOutline=1;fontSize=9;" parent="daT-R8JC0VPsQGqbHnTv-153" vertex="1">
          <mxGeometry x="660" y="195" width="120" height="60" as="geometry"/>
        </mxCell>
        <mxCell id="h2QRb7YloT4JAXJ-JDLX-210" value="" style="endArrow=none;html=1;fillColor=#d5e8d4;fontSize=9;exitX=0.5;exitY=1;exitDx=0;exitDy=0;strokeColor=#82b366;entryX=1;entryY=0.75;entryDx=0;entryDy=0;strokeWidth=2;" parent="daT-R8JC0VPsQGqbHnTv-153" source="h2QRb7YloT4JAXJ-JDLX-209" target="daT-R8JC0VPsQGqbHnTv-144" edge="1">
          <mxGeometry width="50" height="50" relative="1" as="geometry">
            <mxPoint x="855" y="-30" as="sourcePoint"/>
            <mxPoint x="790" y="235" as="targetPoint"/>
            <Array as="points">
              <mxPoint x="720" y="317"/>
            </Array>
          </mxGeometry>
        </mxCell>
        <mxCell id="h2QRb7YloT4JAXJ-JDLX-0" value="" style="group" parent="daT-R8JC0VPsQGqbHnTv-20" vertex="1" connectable="0">
          <mxGeometry x="1197.5" y="1152" width="190" height="160" as="geometry"/>
        </mxCell>
        <mxCell id="h2QRb7YloT4JAXJ-JDLX-1" value="" style="rounded=1;whiteSpace=wrap;html=1;fontSize=9;" parent="h2QRb7YloT4JAXJ-JDLX-0" vertex="1">
          <mxGeometry width="190" height="160" as="geometry"/>
        </mxCell>
        <mxCell id="h2QRb7YloT4JAXJ-JDLX-2" value="DBMS" style="shape=cylinder;whiteSpace=wrap;html=1;boundedLbl=1;backgroundOutline=1;fillColor=#f8cecc;strokeColor=#b85450;" parent="h2QRb7YloT4JAXJ-JDLX-0" vertex="1">
          <mxGeometry x="55" y="40" width="75" height="80" as="geometry"/>
        </mxCell>
        <mxCell id="h2QRb7YloT4JAXJ-JDLX-3" value="&lt;span style=&quot;font-size: 7px&quot;&gt;public ip&lt;/span&gt;" style="rounded=0;whiteSpace=wrap;html=1;fontSize=9;" parent="h2QRb7YloT4JAXJ-JDLX-0" vertex="1">
          <mxGeometry x="66" y="130" width="55" height="30" as="geometry"/>
        </mxCell>
        <mxCell id="h2QRb7YloT4JAXJ-JDLX-7" value="server" style="text;html=1;strokeColor=none;fillColor=none;align=center;verticalAlign=middle;whiteSpace=wrap;rounded=0;fontSize=9;" parent="h2QRb7YloT4JAXJ-JDLX-0" vertex="1">
          <mxGeometry x="75" y="8" width="40" height="20" as="geometry"/>
        </mxCell>
        <mxCell id="h2QRb7YloT4JAXJ-JDLX-8" value="Internet" style="text;html=1;strokeColor=none;fillColor=none;align=center;verticalAlign=middle;whiteSpace=wrap;rounded=0;fontSize=9;" parent="daT-R8JC0VPsQGqbHnTv-20" vertex="1">
          <mxGeometry x="1260" y="1070" width="70" height="40" as="geometry"/>
        </mxCell>
        <mxCell id="h2QRb7YloT4JAXJ-JDLX-20" value="" style="endArrow=none;html=1;fillColor=#fff2cc;fontSize=9;entryX=1;entryY=0.5;entryDx=0;entryDy=0;exitX=0;exitY=0.5;exitDx=0;exitDy=0;strokeColor=#d6b656;strokeWidth=2;" parent="daT-R8JC0VPsQGqbHnTv-20" source="h2QRb7YloT4JAXJ-JDLX-3" target="daT-R8JC0VPsQGqbHnTv-150" edge="1">
          <mxGeometry width="50" height="50" relative="1" as="geometry">
            <mxPoint x="1180" y="960" as="sourcePoint"/>
            <mxPoint x="1193" y="1047" as="targetPoint"/>
            <Array as="points">
              <mxPoint x="1150" y="1297"/>
              <mxPoint x="1150" y="960"/>
            </Array>
          </mxGeometry>
        </mxCell>
        <mxCell id="h2QRb7YloT4JAXJ-JDLX-110" value="" style="endArrow=none;html=1;fillColor=#fff2cc;fontSize=9;exitX=0.5;exitY=1;exitDx=0;exitDy=0;strokeColor=#d6b656;entryX=1;entryY=0.5;entryDx=0;entryDy=0;strokeWidth=2;" parent="daT-R8JC0VPsQGqbHnTv-20" source="daT-R8JC0VPsQGqbHnTv-150" target="h2QRb7YloT4JAXJ-JDLX-209" edge="1">
          <mxGeometry width="50" height="50" relative="1" as="geometry">
            <mxPoint x="520" y="1590" as="sourcePoint"/>
            <mxPoint x="790" y="1341" as="targetPoint"/>
            <Array as="points">
              <mxPoint x="825" y="1255"/>
            </Array>
          </mxGeometry>
        </mxCell>
        <mxCell id="h2QRb7YloT4JAXJ-JDLX-120" value="" style="endArrow=none;html=1;fillColor=#d5e8d4;fontSize=9;entryX=0.558;entryY=0.017;entryDx=0;entryDy=0;entryPerimeter=0;strokeColor=#82b366;strokeWidth=2;" parent="daT-R8JC0VPsQGqbHnTv-20" target="h2QRb7YloT4JAXJ-JDLX-100" edge="1">
          <mxGeometry width="50" height="50" relative="1" as="geometry">
            <mxPoint x="820" y="450" as="sourcePoint"/>
            <mxPoint x="819" y="600" as="targetPoint"/>
          </mxGeometry>
        </mxCell>
        <mxCell id="daT-R8JC0VPsQGqbHnTv-104" value="" style="group" parent="daT-R8JC0VPsQGqbHnTv-20" vertex="1" connectable="0">
          <mxGeometry x="630" y="300" width="390" height="152" as="geometry"/>
        </mxCell>
        <mxCell id="daT-R8JC0VPsQGqbHnTv-93" value="" style="rounded=1;whiteSpace=wrap;html=1;fontSize=9;" parent="daT-R8JC0VPsQGqbHnTv-104" vertex="1">
          <mxGeometry x="80" width="240" height="152" as="geometry"/>
        </mxCell>
        <mxCell id="daT-R8JC0VPsQGqbHnTv-92" value="DTS Agent" style="rounded=1;whiteSpace=wrap;html=1;fontSize=9;" parent="daT-R8JC0VPsQGqbHnTv-104" vertex="1">
          <mxGeometry x="135" y="56" width="120" height="58" as="geometry"/>
        </mxCell>
        <mxCell id="daT-R8JC0VPsQGqbHnTv-94" value="container" style="text;html=1;strokeColor=none;fillColor=none;align=center;verticalAlign=middle;whiteSpace=wrap;rounded=0;fontSize=9;" parent="daT-R8JC0VPsQGqbHnTv-104" vertex="1">
          <mxGeometry x="180" y="30" width="40" height="20" as="geometry"/>
        </mxCell>
        <mxCell id="daT-R8JC0VPsQGqbHnTv-99" value="floating ip2/public ip" style="rounded=0;whiteSpace=wrap;html=1;fontSize=9;" parent="daT-R8JC0VPsQGqbHnTv-104" vertex="1">
          <mxGeometry x="185" y="122" width="114" height="30" as="geometry"/>
        </mxCell>
        <mxCell id="daT-R8JC0VPsQGqbHnTv-101" value="vpc ip2" style="rounded=0;whiteSpace=wrap;html=1;fontSize=9;" parent="daT-R8JC0VPsQGqbHnTv-104" vertex="1">
          <mxGeometry x="195" width="70" height="30" as="geometry"/>
        </mxCell>
        <mxCell id="daT-R8JC0VPsQGqbHnTv-102" value="floating ip1" style="rounded=0;whiteSpace=wrap;html=1;fontSize=9;" parent="daT-R8JC0VPsQGqbHnTv-104" vertex="1">
          <mxGeometry x="115" y="122" width="70" height="30" as="geometry"/>
        </mxCell>
        <mxCell id="daT-R8JC0VPsQGqbHnTv-98" value="vpc ip1" style="rounded=0;whiteSpace=wrap;html=1;fontSize=9;" parent="daT-R8JC0VPsQGqbHnTv-104" vertex="1">
          <mxGeometry x="125" width="70" height="30" as="geometry"/>
        </mxCell>
        <mxCell id="daT-R8JC0VPsQGqbHnTv-25" value="DTS" style="text;html=1;strokeColor=none;fillColor=none;align=center;verticalAlign=middle;whiteSpace=wrap;rounded=0;fontSize=9;" parent="attTnAMffyvIRlDMNTJ2-1" vertex="1">
          <mxGeometry x="-2430" y="550" width="40" height="20" as="geometry"/>
        </mxCell>
        <mxCell id="daT-R8JC0VPsQGqbHnTv-28" value="region 1&amp;nbsp;" style="text;html=1;strokeColor=none;fillColor=none;align=center;verticalAlign=middle;whiteSpace=wrap;rounded=0;fontSize=9;" parent="attTnAMffyvIRlDMNTJ2-1" vertex="1">
          <mxGeometry x="-1520" y="540" width="70" height="20" as="geometry"/>
        </mxCell>
        <mxCell id="daT-R8JC0VPsQGqbHnTv-32" value="" style="group" parent="attTnAMffyvIRlDMNTJ2-1" vertex="1" connectable="0">
          <mxGeometry x="-2290" y="1020" width="660" height="430" as="geometry"/>
        </mxCell>
        <mxCell id="daT-R8JC0VPsQGqbHnTv-33" value="" style="ellipse;shape=cloud;whiteSpace=wrap;html=1;fontSize=9;" parent="daT-R8JC0VPsQGqbHnTv-32" vertex="1">
          <mxGeometry width="660" height="430" as="geometry"/>
        </mxCell>
        <mxCell id="daT-R8JC0VPsQGqbHnTv-34" value="" style="group" parent="daT-R8JC0VPsQGqbHnTv-32" vertex="1" connectable="0">
          <mxGeometry x="140" y="130" width="390" height="190" as="geometry"/>
        </mxCell>
        <mxCell id="daT-R8JC0VPsQGqbHnTv-35" value="" style="rounded=1;whiteSpace=wrap;html=1;" parent="daT-R8JC0VPsQGqbHnTv-34" vertex="1">
          <mxGeometry width="389.99999999999994" height="190" as="geometry"/>
        </mxCell>
        <mxCell id="daT-R8JC0VPsQGqbHnTv-36" value="RDS" style="text;html=1;strokeColor=none;fillColor=none;align=center;verticalAlign=middle;whiteSpace=wrap;rounded=0;" parent="daT-R8JC0VPsQGqbHnTv-34" vertex="1">
          <mxGeometry x="148.94680851063828" width="83.80851063829786" height="33.04347826086957" as="geometry"/>
        </mxCell>
        <mxCell id="daT-R8JC0VPsQGqbHnTv-37" value="" style="group" parent="daT-R8JC0VPsQGqbHnTv-34" vertex="1" connectable="0">
          <mxGeometry x="33.191489361702125" y="41.30434782608696" width="331.9148936170212" height="132.17391304347828" as="geometry"/>
        </mxCell>
        <mxCell id="daT-R8JC0VPsQGqbHnTv-38" value="" style="group" parent="daT-R8JC0VPsQGqbHnTv-37" vertex="1" connectable="0">
          <mxGeometry width="157.65957446808508" height="132.17391304347828" as="geometry"/>
        </mxCell>
        <mxCell id="daT-R8JC0VPsQGqbHnTv-39" value="" style="rounded=1;whiteSpace=wrap;html=1;fontSize=9;" parent="daT-R8JC0VPsQGqbHnTv-38" vertex="1">
          <mxGeometry width="157.65957446808508" height="132.17391304347828" as="geometry"/>
        </mxCell>
        <mxCell id="daT-R8JC0VPsQGqbHnTv-40" value="S" style="shape=cylinder;whiteSpace=wrap;html=1;boundedLbl=1;backgroundOutline=1;fillColor=#f8cecc;strokeColor=#b85450;" parent="daT-R8JC0VPsQGqbHnTv-38" vertex="1">
          <mxGeometry x="45.638297872340424" y="33.04347826086957" width="62.23404255319149" height="66.08695652173914" as="geometry"/>
        </mxCell>
        <mxCell id="daT-R8JC0VPsQGqbHnTv-41" value="&lt;font style=&quot;font-size: 7px&quot;&gt;vpc ip&lt;/font&gt;" style="rounded=0;whiteSpace=wrap;html=1;fontSize=9;" parent="daT-R8JC0VPsQGqbHnTv-38" vertex="1">
          <mxGeometry x="33.191489361702125" y="107.3913043478261" width="45.638297872340424" height="24.782608695652172" as="geometry"/>
        </mxCell>
        <mxCell id="daT-R8JC0VPsQGqbHnTv-42" value="floating ip" style="rounded=0;whiteSpace=wrap;html=1;fontSize=9;" parent="daT-R8JC0VPsQGqbHnTv-38" vertex="1">
          <mxGeometry x="78.82978723404254" y="107.3913043478261" width="45.638297872340424" height="24.782608695652172" as="geometry"/>
        </mxCell>
        <mxCell id="daT-R8JC0VPsQGqbHnTv-43" value="container" style="text;html=1;strokeColor=none;fillColor=none;align=center;verticalAlign=middle;whiteSpace=wrap;rounded=0;fontSize=9;" parent="daT-R8JC0VPsQGqbHnTv-38" vertex="1">
          <mxGeometry x="58.08510638297872" y="8.260869565217392" width="33.191489361702125" height="16.521739130434785" as="geometry"/>
        </mxCell>
        <mxCell id="daT-R8JC0VPsQGqbHnTv-44" value="" style="group" parent="daT-R8JC0VPsQGqbHnTv-37" vertex="1" connectable="0">
          <mxGeometry x="174.25531914893617" width="157.65957446808508" height="132.17391304347828" as="geometry"/>
        </mxCell>
        <mxCell id="daT-R8JC0VPsQGqbHnTv-45" value="" style="rounded=1;whiteSpace=wrap;html=1;fontSize=9;" parent="daT-R8JC0VPsQGqbHnTv-44" vertex="1">
          <mxGeometry width="157.65957446808508" height="132.17391304347828" as="geometry"/>
        </mxCell>
        <mxCell id="daT-R8JC0VPsQGqbHnTv-46" value="M" style="shape=cylinder;whiteSpace=wrap;html=1;boundedLbl=1;backgroundOutline=1;fillColor=#f8cecc;strokeColor=#b85450;" parent="daT-R8JC0VPsQGqbHnTv-44" vertex="1">
          <mxGeometry x="45.638297872340424" y="33.04347826086957" width="62.23404255319149" height="66.08695652173914" as="geometry"/>
        </mxCell>
        <mxCell id="daT-R8JC0VPsQGqbHnTv-47" value="&lt;font style=&quot;font-size: 7px&quot;&gt;vpc ip&lt;/font&gt;" style="rounded=0;whiteSpace=wrap;html=1;fontSize=9;" parent="daT-R8JC0VPsQGqbHnTv-44" vertex="1">
          <mxGeometry x="33.191489361702125" y="107.3913043478261" width="45.638297872340424" height="24.782608695652172" as="geometry"/>
        </mxCell>
        <mxCell id="daT-R8JC0VPsQGqbHnTv-48" value="floating ip" style="rounded=0;whiteSpace=wrap;html=1;fontSize=9;" parent="daT-R8JC0VPsQGqbHnTv-44" vertex="1">
          <mxGeometry x="78.82978723404254" y="107.3913043478261" width="45.638297872340424" height="24.782608695652172" as="geometry"/>
        </mxCell>
        <mxCell id="daT-R8JC0VPsQGqbHnTv-49" value="container" style="text;html=1;strokeColor=none;fillColor=none;align=center;verticalAlign=middle;whiteSpace=wrap;rounded=0;fontSize=9;" parent="daT-R8JC0VPsQGqbHnTv-44" vertex="1">
          <mxGeometry x="58.08510638297872" y="8.260869565217392" width="33.191489361702125" height="16.521739130434785" as="geometry"/>
        </mxCell>
        <mxCell id="daT-R8JC0VPsQGqbHnTv-50" value="" style="shape=flexArrow;endArrow=classic;startArrow=classic;html=1;fillColor=#ffffff;startWidth=4;startSize=4.85;endWidth=4;endSize=4.85;width=4;spacing=6;fontSize=9;" parent="daT-R8JC0VPsQGqbHnTv-37" edge="1">
          <mxGeometry width="50" height="50" relative="1" as="geometry">
            <mxPoint x="122.39361702127648" y="66.26397515527947" as="sourcePoint"/>
            <mxPoint x="205.3723404255318" y="66.26397515527947" as="targetPoint"/>
          </mxGeometry>
        </mxCell>
        <mxCell id="daT-R8JC0VPsQGqbHnTv-51" value="replication" style="text;html=1;strokeColor=none;fillColor=none;align=center;verticalAlign=middle;whiteSpace=wrap;rounded=0;fontSize=9;" parent="daT-R8JC0VPsQGqbHnTv-37" vertex="1">
          <mxGeometry x="149.36170212765956" y="41.30434782608696" width="33.191489361702125" height="16.521739130434785" as="geometry"/>
        </mxCell>
        <mxCell id="daT-R8JC0VPsQGqbHnTv-52" value="VPC" style="text;html=1;strokeColor=none;fillColor=none;align=center;verticalAlign=middle;whiteSpace=wrap;rounded=0;fontSize=9;" parent="daT-R8JC0VPsQGqbHnTv-32" vertex="1">
          <mxGeometry x="310" y="80" width="40" height="20" as="geometry"/>
        </mxCell>
        <mxCell id="daT-R8JC0VPsQGqbHnTv-62" value="" style="group" parent="attTnAMffyvIRlDMNTJ2-1" vertex="1" connectable="0">
          <mxGeometry x="-1200" y="1250" width="227" height="210" as="geometry"/>
        </mxCell>
        <mxCell id="daT-R8JC0VPsQGqbHnTv-58" value="DTS Manger" style="rounded=1;whiteSpace=wrap;html=1;fontSize=9;" parent="daT-R8JC0VPsQGqbHnTv-62" vertex="1">
          <mxGeometry width="174.6153846153846" height="157.5" as="geometry"/>
        </mxCell>
        <mxCell id="daT-R8JC0VPsQGqbHnTv-59" value="DTS Manger" style="rounded=1;whiteSpace=wrap;html=1;fontSize=9;" parent="daT-R8JC0VPsQGqbHnTv-62" vertex="1">
          <mxGeometry x="17.46153846153846" y="17.5" width="174.6153846153846" height="157.5" as="geometry"/>
        </mxCell>
        <mxCell id="daT-R8JC0VPsQGqbHnTv-60" value="DTS Manger" style="rounded=1;whiteSpace=wrap;html=1;fontSize=9;" parent="daT-R8JC0VPsQGqbHnTv-62" vertex="1">
          <mxGeometry x="34.92307692307692" y="35" width="174.6153846153846" height="157.5" as="geometry"/>
        </mxCell>
        <mxCell id="daT-R8JC0VPsQGqbHnTv-61" value="DTS Manger" style="rounded=1;whiteSpace=wrap;html=1;fontSize=9;" parent="daT-R8JC0VPsQGqbHnTv-62" vertex="1">
          <mxGeometry x="52.38461538461539" y="52.5" width="174.6153846153846" height="157.5" as="geometry"/>
        </mxCell>
        <mxCell id="daT-R8JC0VPsQGqbHnTv-89" value="" style="group" parent="attTnAMffyvIRlDMNTJ2-1" vertex="1" connectable="0">
          <mxGeometry x="-910" y="1250" width="230" height="210" as="geometry"/>
        </mxCell>
        <mxCell id="daT-R8JC0VPsQGqbHnTv-85" value="sentinel" style="rounded=1;whiteSpace=wrap;html=1;fontSize=9;" parent="daT-R8JC0VPsQGqbHnTv-89" vertex="1">
          <mxGeometry width="177.32824427480918" height="157.5" as="geometry"/>
        </mxCell>
        <mxCell id="daT-R8JC0VPsQGqbHnTv-86" value="sentinel" style="rounded=1;whiteSpace=wrap;html=1;fontSize=9;" parent="daT-R8JC0VPsQGqbHnTv-89" vertex="1">
          <mxGeometry x="17.55725190839695" y="17.500000000000004" width="177.32824427480918" height="157.5" as="geometry"/>
        </mxCell>
        <mxCell id="daT-R8JC0VPsQGqbHnTv-87" value="sentinel" style="rounded=1;whiteSpace=wrap;html=1;fontSize=9;" parent="daT-R8JC0VPsQGqbHnTv-89" vertex="1">
          <mxGeometry x="35.1145038167939" y="35.00000000000001" width="177.32824427480918" height="157.5" as="geometry"/>
        </mxCell>
        <mxCell id="daT-R8JC0VPsQGqbHnTv-88" value="sentinel" style="rounded=1;whiteSpace=wrap;html=1;fontSize=9;" parent="daT-R8JC0VPsQGqbHnTv-89" vertex="1">
          <mxGeometry x="52.67175572519084" y="52.5" width="177.32824427480918" height="157.5" as="geometry"/>
        </mxCell>
        <mxCell id="h2QRb7YloT4JAXJ-JDLX-100" value="Router" style="shape=process;whiteSpace=wrap;html=1;backgroundOutline=1;fontSize=9;" parent="attTnAMffyvIRlDMNTJ2-1" vertex="1">
          <mxGeometry x="-1545" y="1205" width="120" height="60" as="geometry"/>
        </mxCell>
        <mxCell id="h2QRb7YloT4JAXJ-JDLX-101" value="" style="endArrow=none;html=1;fillColor=#fff2cc;fontSize=9;entryX=0.5;entryY=1;entryDx=0;entryDy=0;strokeColor=#d6b656;strokeWidth=2;" parent="attTnAMffyvIRlDMNTJ2-1" target="h2QRb7YloT4JAXJ-JDLX-100" edge="1">
          <mxGeometry width="50" height="50" relative="1" as="geometry">
            <mxPoint x="-1485" y="1530" as="sourcePoint"/>
            <mxPoint x="-1425" y="1807" as="targetPoint"/>
          </mxGeometry>
        </mxCell>
        <mxCell id="h2QRb7YloT4JAXJ-JDLX-104" value="" style="endArrow=none;html=1;fillColor=#d5e8d4;fontSize=9;entryX=0.5;entryY=1;entryDx=0;entryDy=0;exitX=0.008;exitY=0.617;exitDx=0;exitDy=0;exitPerimeter=0;strokeColor=#82b366;strokeWidth=2;" parent="attTnAMffyvIRlDMNTJ2-1" source="h2QRb7YloT4JAXJ-JDLX-100" target="daT-R8JC0VPsQGqbHnTv-48" edge="1">
          <mxGeometry width="50" height="50" relative="1" as="geometry">
            <mxPoint x="-2030" y="2150" as="sourcePoint"/>
            <mxPoint x="-1980" y="2100" as="targetPoint"/>
            <Array as="points">
              <mxPoint x="-1640" y="1242"/>
              <mxPoint x="-1640" y="1380"/>
              <mxPoint x="-1841" y="1380"/>
            </Array>
          </mxGeometry>
        </mxCell>
        <mxCell id="h2QRb7YloT4JAXJ-JDLX-117" value="" style="endArrow=none;html=1;fillColor=#d5e8d4;fontSize=9;entryX=0.5;entryY=1;entryDx=0;entryDy=0;exitX=0;exitY=0.25;exitDx=0;exitDy=0;strokeColor=#82b366;strokeWidth=2;" parent="attTnAMffyvIRlDMNTJ2-1" source="h2QRb7YloT4JAXJ-JDLX-100" target="daT-R8JC0VPsQGqbHnTv-13" edge="1">
          <mxGeometry width="50" height="50" relative="1" as="geometry">
            <mxPoint x="-1920" y="2350" as="sourcePoint"/>
            <mxPoint x="-1870" y="2300" as="targetPoint"/>
            <Array as="points">
              <mxPoint x="-1640" y="1220"/>
              <mxPoint x="-1640" y="970"/>
              <mxPoint x="-1810" y="970"/>
            </Array>
          </mxGeometry>
        </mxCell>
        <mxCell id="h2QRb7YloT4JAXJ-JDLX-118" value="" style="endArrow=none;html=1;fillColor=#d5e8d4;fontSize=9;entryX=0.5;entryY=1;entryDx=0;entryDy=0;exitX=1;exitY=0.5;exitDx=0;exitDy=0;strokeColor=#82b366;strokeWidth=2;" parent="attTnAMffyvIRlDMNTJ2-1" source="h2QRb7YloT4JAXJ-JDLX-100" target="daT-R8JC0VPsQGqbHnTv-73" edge="1">
          <mxGeometry width="50" height="50" relative="1" as="geometry">
            <mxPoint x="-1900" y="2350" as="sourcePoint"/>
            <mxPoint x="-1850" y="2300" as="targetPoint"/>
            <Array as="points">
              <mxPoint x="-1360" y="1235"/>
              <mxPoint x="-1290" y="1235"/>
              <mxPoint x="-1290" y="970"/>
              <mxPoint x="-1072" y="970"/>
            </Array>
          </mxGeometry>
        </mxCell>
        <mxCell id="h2QRb7YloT4JAXJ-JDLX-124" value="" style="endArrow=none;html=1;fillColor=#d5e8d4;fontSize=9;entryX=0.5;entryY=0;entryDx=0;entryDy=0;strokeColor=#82b366;strokeWidth=2;" parent="attTnAMffyvIRlDMNTJ2-1" target="daT-R8JC0VPsQGqbHnTv-58" edge="1">
          <mxGeometry width="50" height="50" relative="1" as="geometry">
            <mxPoint x="-1290" y="1230" as="sourcePoint"/>
            <mxPoint x="-1470" y="1000" as="targetPoint"/>
            <Array as="points">
              <mxPoint x="-1113" y="1230"/>
            </Array>
          </mxGeometry>
        </mxCell>
        <mxCell id="h2QRb7YloT4JAXJ-JDLX-125" value="" style="endArrow=none;html=1;fillColor=#d5e8d4;fontSize=9;entryX=0.5;entryY=0;entryDx=0;entryDy=0;strokeColor=#82b366;strokeWidth=2;" parent="attTnAMffyvIRlDMNTJ2-1" edge="1">
          <mxGeometry width="50" height="50" relative="1" as="geometry">
            <mxPoint x="-1130" y="1230" as="sourcePoint"/>
            <mxPoint x="-827.6923076923076" y="1250" as="targetPoint"/>
            <Array as="points">
              <mxPoint x="-828" y="1230"/>
            </Array>
          </mxGeometry>
        </mxCell>
        <mxCell id="h2QRb7YloT4JAXJ-JDLX-113" value="Router" style="shape=process;whiteSpace=wrap;html=1;backgroundOutline=1;fontSize=9;" parent="attTnAMffyvIRlDMNTJ2-1" vertex="1">
          <mxGeometry x="-1535" y="737.5" width="120" height="60" as="geometry"/>
        </mxCell>
        <mxCell id="h2QRb7YloT4JAXJ-JDLX-121" value="" style="endArrow=none;html=1;fillColor=#dae8fc;fontSize=9;entryX=0;entryY=0.5;entryDx=0;entryDy=0;exitX=1;exitY=0.5;exitDx=0;exitDy=0;strokeColor=#6c8ebf;strokeWidth=2;" parent="attTnAMffyvIRlDMNTJ2-1" source="daT-R8JC0VPsQGqbHnTv-14" target="h2QRb7YloT4JAXJ-JDLX-113" edge="1">
          <mxGeometry width="50" height="50" relative="1" as="geometry">
            <mxPoint x="-1470" y="910" as="sourcePoint"/>
            <mxPoint x="-1470" y="1000" as="targetPoint"/>
            <Array as="points">
              <mxPoint x="-1610" y="907"/>
              <mxPoint x="-1610" y="768"/>
            </Array>
          </mxGeometry>
        </mxCell>
        <mxCell id="h2QRb7YloT4JAXJ-JDLX-122" value="" style="endArrow=none;html=1;fillColor=#dae8fc;fontSize=9;entryX=1;entryY=0.5;entryDx=0;entryDy=0;exitX=0;exitY=0.5;exitDx=0;exitDy=0;strokeColor=#6c8ebf;strokeWidth=2;" parent="attTnAMffyvIRlDMNTJ2-1" source="daT-R8JC0VPsQGqbHnTv-72" target="h2QRb7YloT4JAXJ-JDLX-113" edge="1">
          <mxGeometry width="50" height="50" relative="1" as="geometry">
            <mxPoint x="-1470" y="910" as="sourcePoint"/>
            <mxPoint x="-1470" y="1000" as="targetPoint"/>
            <Array as="points">
              <mxPoint x="-1320" y="912"/>
              <mxPoint x="-1320" y="768"/>
            </Array>
          </mxGeometry>
        </mxCell>
        <mxCell id="h2QRb7YloT4JAXJ-JDLX-126" value="" style="endArrow=none;html=1;fillColor=#dae8fc;fontSize=9;strokeColor=#6c8ebf;strokeWidth=2;" parent="attTnAMffyvIRlDMNTJ2-1" target="h2QRb7YloT4JAXJ-JDLX-113" edge="1">
          <mxGeometry width="50" height="50" relative="1" as="geometry">
            <mxPoint x="-1475" y="898" as="sourcePoint"/>
            <mxPoint x="-1475" y="720" as="targetPoint"/>
          </mxGeometry>
        </mxCell>
        <mxCell id="h2QRb7YloT4JAXJ-JDLX-211" value="" style="endArrow=none;dashed=1;html=1;fillColor=#f8cecc;fontSize=9;entryX=1;entryY=0.75;entryDx=0;entryDy=0;strokeColor=#b85450;strokeWidth=2;" parent="attTnAMffyvIRlDMNTJ2-1" target="daT-R8JC0VPsQGqbHnTv-93" edge="1">
          <mxGeometry width="50" height="50" relative="1" as="geometry">
            <mxPoint x="-830" y="1250" as="sourcePoint"/>
            <mxPoint x="-2380" y="2300" as="targetPoint"/>
            <Array as="points">
              <mxPoint x="-830" y="1010"/>
            </Array>
          </mxGeometry>
        </mxCell>
        <mxCell id="h2QRb7YloT4JAXJ-JDLX-214" value="heart beat&amp;nbsp;" style="text;html=1;align=center;verticalAlign=middle;resizable=0;points=[];;labelBackgroundColor=#ffffff;fontSize=9;" parent="h2QRb7YloT4JAXJ-JDLX-211" vertex="1" connectable="0">
          <mxGeometry x="0.207" y="1" relative="1" as="geometry">
            <mxPoint as="offset"/>
          </mxGeometry>
        </mxCell>
        <mxCell id="h2QRb7YloT4JAXJ-JDLX-216" value="&lt;font style=&quot;font-size: 17px&quot;&gt;DTS&amp;nbsp; Topology&lt;/font&gt;" style="text;html=1;strokeColor=none;fillColor=none;align=center;verticalAlign=middle;whiteSpace=wrap;rounded=0;fontSize=9;" parent="attTnAMffyvIRlDMNTJ2-1" vertex="1">
          <mxGeometry x="-1545" y="420" width="125" height="20" as="geometry"/>
        </mxCell>
        <mxCell id="h2QRb7YloT4JAXJ-JDLX-228" value="" style="group" parent="attTnAMffyvIRlDMNTJ2-1" vertex="1" connectable="0">
          <mxGeometry x="-476" y="454" width="200" height="84" as="geometry"/>
        </mxCell>
        <mxCell id="h2QRb7YloT4JAXJ-JDLX-220" value="" style="endArrow=none;html=1;strokeWidth=2;fillColor=#d5e8d4;fontSize=9;strokeColor=#82b366;" parent="h2QRb7YloT4JAXJ-JDLX-228" edge="1">
          <mxGeometry width="50" height="50" relative="1" as="geometry">
            <mxPoint y="9" as="sourcePoint"/>
            <mxPoint x="90" y="9" as="targetPoint"/>
          </mxGeometry>
        </mxCell>
        <mxCell id="h2QRb7YloT4JAXJ-JDLX-221" value="" style="endArrow=none;html=1;strokeWidth=2;fillColor=#dae8fc;fontSize=9;strokeColor=#6c8ebf;" parent="h2QRb7YloT4JAXJ-JDLX-228" target="h2QRb7YloT4JAXJ-JDLX-223" edge="1">
          <mxGeometry width="50" height="50" relative="1" as="geometry">
            <mxPoint x="2" y="42" as="sourcePoint"/>
            <mxPoint x="92" y="42" as="targetPoint"/>
          </mxGeometry>
        </mxCell>
        <mxCell id="h2QRb7YloT4JAXJ-JDLX-222" value="" style="endArrow=none;html=1;strokeWidth=2;fillColor=#f8cecc;fontSize=9;strokeColor=#b85450;" parent="h2QRb7YloT4JAXJ-JDLX-228" edge="1">
          <mxGeometry width="50" height="50" relative="1" as="geometry">
            <mxPoint x="2" y="75" as="sourcePoint"/>
            <mxPoint x="92" y="75" as="targetPoint"/>
          </mxGeometry>
        </mxCell>
        <mxCell id="h2QRb7YloT4JAXJ-JDLX-223" value="vpc network" style="text;html=1;strokeColor=none;fillColor=none;align=center;verticalAlign=middle;whiteSpace=wrap;rounded=0;" parent="h2QRb7YloT4JAXJ-JDLX-228" vertex="1">
          <mxGeometry x="87" y="32" width="103" height="20" as="geometry"/>
        </mxCell>
        <mxCell id="h2QRb7YloT4JAXJ-JDLX-224" value="public network" style="text;html=1;strokeColor=none;fillColor=none;align=center;verticalAlign=middle;whiteSpace=wrap;rounded=0;" parent="h2QRb7YloT4JAXJ-JDLX-228" vertex="1">
          <mxGeometry x="94" y="64" width="91" height="20" as="geometry"/>
        </mxCell>
        <mxCell id="h2QRb7YloT4JAXJ-JDLX-225" value="manager network" style="text;html=1;strokeColor=none;fillColor=none;align=center;verticalAlign=middle;whiteSpace=wrap;rounded=0;" parent="h2QRb7YloT4JAXJ-JDLX-228" vertex="1">
          <mxGeometry x="90" width="110" height="20" as="geometry"/>
        </mxCell>
      </root>
    </mxGraphModel>
  </diagram>
</mxfile>
